{"title":"Superbad.Extended.Edition.2007.1080p.BRRip.x264.AC3-Kay","uid":9735357,"size":3493798082,"categoryP":"video","categoryS":"hd___movies","magnet":"?xt=urn:btih:93d664f9705a78c93e93a3c371fe5aac81c8a3cb&amp;dn=Superbad.Extended.Edition.2007.1080p.BRRip.x264.AC3-Kay&amp;tr=udp%3A%2F%2Ftracker.openbittorrent.com%3A80&amp;tr=udp%3A%2F%2Fopen.demonii.com%3A1337&amp;tr=udp%3A%2F%2Ftracker.coppersurfer.tk%3A6969&amp;tr=udp%3A%2F%2Fexodus.desync.com%3A6969","seeders":4,"leechers":2,"uploader":"thegame2012","files":-1,"time":1394434313,"description":"Superbad.Extended.Edition.2007.1080p.BRRip.x264.AC3-Kay\n\nExtended Edition with Audio Commentary on Track two. Commentary features Judd Apatow, Seth Rogen, Greg Mottola, Evan Goldberg, Jonah Hill, Michael Cera and Christopher Mintz-Plasse.\n\n\nGeneral\nFormat                           : Matroska\nFile size                        : 3.23 GiB\nDuration                         : 1h 58mn\nOverall bit rate                 : 3 891 Kbps\n\nVideo\nID                               : 1\nFormat                           : AVC\nFormat/Info                      : Advanced Video Codec\nFormat profile                   : &lt;a class=&quot;__cf_email__&quot; href=&quot;/cdn-cgi/l/email-protection&quot; data-cfemail=&quot;8fc7e6e8e7cfc3baa1bf&quot;&gt;[email&amp;#160;protected]&lt;/a&gt;&lt;script cf-hash='f9e31' type=&quot;text/javascript&quot;&gt;\n/* &lt;![CDATA[ */!function(){try{var t=&quot;currentScript&quot;in document?document.currentScript:function(){for(var t=document.getElementsByTagName(&quot;script&quot;),e=t.length;e--;)if(t[e].getAttribute(&quot;cf-hash&quot;))return t[e]}();if(t&amp;&amp;t.previousSibling){var e,r,n,i,c=t.previousSibling,a=c.getAttribute(&quot;data-cfemail&quot;);if(a){for(e=&quot;&quot;,r=parseInt(a.substr(0,2),16),n=2;a.length-n;n+=2)i=parseInt(a.substr(n,2),16)^r,e+=String.fromCharCode(i);e=document.createTextNode(e),c.parentNode.replaceChild(e,c)}}}catch(u){}}();/* ]]&gt; */&lt;/script&gt;\nFormat settings, CABAC           : Yes\nFormat settings, ReFrames        : 5 frames\nDuration                         : 1h 58mn\nBit rate                         : 3 174 Kbps\nWidth                            : 1 920 pixels\nHeight                           : 1 040 pixels\nDisplay aspect ratio             : 16:9\nFrame rate                       : 23.976 fps\nResolution                       : 8 bits\nColorimetry                      : 4:2:0\nScan type                        : Progressive\nBits/(Pixel*Frame)               : 0.066\nStream size                      : 2.63 GiB (81%)\nWriting library                  : x264 core 133 r2334 a3ac64b\n\n\nAudio #1\nID                               : 2\nFormat                           : AC-3\nFormat/Info                      : Audio Coding 3\nCodec ID                         : A_AC3\nDuration                         : 1h 58mn\nBit rate mode                    : Constant\nBit rate                         : 448 Kbps\nChannel(s)                       : 6 channels\nChannel positions                : Front: L C R, Surround: L R, LFE\nSampling rate                    : 48.0 KHz\nStream size                      : 380 MiB (12%)\nLanguage                         : English\n\nAudio #2\nID                               : 3\nFormat                           : AC-3\nFormat/Info                      : Audio Coding 3\nFormat profile                   : Dolby Digital\nCodec ID                         : A_AC3\nDuration                         : 1h 58mn\nBit rate mode                    : Constant\nBit rate                         : 192 Kbps\nChannel(s)                       : 2 channels\nChannel positions                : L R\nSampling rate                    : 48.0 KHz\nStream size                      : 163 MiB (5%)\nLanguage                         : English\n\n\nScreencaps: &lt;a href=&quot;\nhttp://imagizer.imageshack.us/v2/1024x768q90/38/rjpk.jpg&quot; rel=&quot;nofollow&quot; target=&quot;_NEW&quot;&gt;\nhttp://imagizer.imageshack.us/v2/1024x768q90/38/rjpk.jpg&lt;/a&gt; &lt;a href=&quot;\nhttp://imagizer.imageshack.us/v2/1024x768q90/22/n77d.jpg&quot; rel=&quot;nofollow&quot; target=&quot;_NEW&quot;&gt;\nhttp://imagizer.imageshack.us/v2/1024x768q90/22/n77d.jpg&lt;/a&gt; &lt;a href=&quot;\nhttp://imagizer.imageshack.us/v2/1024x768q90/841/dyfs.jpg&quot; rel=&quot;nofollow&quot; target=&quot;_NEW&quot;&gt;\nhttp://imagizer.imageshack.us/v2/1024x768q90/841/dyfs.jpg&lt;/a&gt; &lt;a href=&quot;\nhttp://imagizer.imageshack.us/v2/1024x768q90/138/gxjy.jpg&quot; rel=&quot;nofollow&quot; target=&quot;_NEW&quot;&gt;\nhttp://imagizer.imageshack.us/v2/1024x768q90/138/gxjy.jpg&lt;/a&gt;\n\n\nSample included. Please rate/comment/seed!\n\nThanks!\n\n-Kay\t","torrent":{"xt":"urn:btih:93d664f9705a78c93e93a3c371fe5aac81c8a3cb","amp;dn":"Superbad.Extended.Edition.2007.1080p.BRRip.x264.AC3-Kay","amp;tr":["udp%3A%2F%2Ftracker.openbittorrent.com%3A80","udp%3A%2F%2Fopen.demonii.com%3A1337","udp%3A%2F%2Ftracker.coppersurfer.tk%3A6969","udp%3A%2F%2Fexodus.desync.com%3A6969"],"infoHash":"93d664f9705a78c93e93a3c371fe5aac81c8a3cb","infoHashBuffer":{"type":"Buffer","data":[147,214,100,249,112,90,120,201,62,147,163,195,113,254,90,172,129,200,163,203]},"announce":[],"urlList":[]}}